<svg class="logo-icon" width="" height="37px" xmlns="http://www.w3.org/2000/svg" viewBox="0 0 2066.63 166.656">
  <metadata><!--?xpacket begin="&#xFEFF;" id="W5M0MpCehiHzreSzNTczkc9d"?-->
<x:xmpmeta xmlns:x="adobe:ns:meta/" x:xmptk="Adobe XMP Core 5.6-c138 79.159824, 2016/09/14-01:09:01        ">
   <rdf:rdf xmlns:rdf="http://www.w3.org/1999/02/22-rdf-syntax-ns#">
      <rdf:description rdf:about=""></rdf:description>
   </rdf:rdf>
</x:xmpmeta>                                                                                                                    
<!--?xpacket end="w"?--></metadata>
<defs>
    <style>
      .cls-logo {
        fill-rule: evenodd;
        
      }
    </style>
  </defs>
  <path id="ANNIE_ZHANG" data-name="ANNIE ZHANG" class="cls-logo" d="M3004.53,596.34v-5.065h-22.16l20.08-58.929h48.71l18.93,58.929h-17.08v5.065h51.25v-5.065h-9.24l-50.78-156.07h-14.78l-53.55,156.07h-13.39v5.065h42.01Zm22.62-136.505h0.47l21.93,67.447h-45.48ZM3292.68,596.34h7.85V442.11h15.24v-5.064H3275.6v5.064h18.47V552.143h-0.46l-67.88-115.1h-44.31v5.064h15.23V591.275h-15.23v5.065h41.08v-5.065h-19.39V446.714h0.47Zm212.67,0h7.85V442.11h15.23v-5.064h-40.16v5.064h18.46V552.143h-0.46l-67.87-115.1h-44.32v5.064h15.23V591.275h-15.23v5.065h41.09v-5.065h-19.39V446.714h0.46Zm154.12,0v-5.065h-13.85V442.11h13.85v-5.064h-52.64v5.064h13.85V591.275h-13.85v5.065h52.64Zm199.35,0V537.41h-5.08c-13.62,47.651-18.47,53.865-34.86,53.865h-40.63V516.232h18.01c11.54,0,17.08,7.137,21.7,31.768h5.07V479.4h-5.07c-4.62,24.631-10.16,31.767-21.7,31.767h-18.01V442.11h45.71c11.54,0,15.23,2.992,27.7,46.039h5.08v-51.1H3739.47v5.064h13.85V591.275h-13.85v5.065h119.35Zm211.89-3.683v3.683h105.73V537.41h-5.08c-10.39,49.953-15.93,53.865-30.7,53.865h-42.71l78.95-154.229H4074.4v51.1h5.08c8.77-41.895,14.08-46.039,30.01-46.039h37.4Zm286.82-76.425v75.043h-15.24v5.065h54.02v-5.065h-13.85V442.11h13.85v-5.064h-54.02v5.064h15.24v69.059h-61.18V442.11h15.24v-5.064h-54.02v5.064h13.85V591.275h-13.85v5.065h54.02v-5.065h-15.24V516.232h61.18Zm155.06,80.108v-5.065h-22.16l20.08-58.929h48.71l18.93,58.929h-17.08v5.065h51.25v-5.065h-9.23l-50.79-156.07h-14.78l-53.56,156.07h-13.38v5.065h42.01Zm22.62-136.505h0.47l21.93,67.447h-45.48ZM4800.74,596.34h7.85V442.11h15.24v-5.064h-40.17v5.064h18.47V552.143h-0.46l-67.87-115.1h-44.33v5.064h15.24V591.275h-15.24v5.065h41.09v-5.065h-19.39V446.714h0.46Zm168.85-69.518v5.064h24.47v43.736c0,9.439-10.15,19.337-25.62,19.337-27.93,0-40.86-15.194-40.86-78.266,0-56.4,12.46-78.266,42.7-78.266,21.01,0,29.09,16.575,39.48,50.182h5.08V443.031c-14.31-5.985-26.09-9.669-41.55-9.669-43.4,0-74.34,33.84-74.34,83.331,0,59.851,31.4,83.33,70.87,83.33,20.32,0,38.79-5.985,49.18-12.2V531.886h10.15v-5.064h-59.56Z" transform="translate(-2962.53 -433.375)"></path>
</svg>

